<svg width="580" height="400" xmlns="http://www.w3.org/2000/svg">
 <!-- Created with Method Draw - http://github.com/duopixel/Method-Draw/ -->
 <g>
  <title>background</title>
  <rect fill="#fff" id="canvas_background" height="402" width="582" y="-1" x="-1"/>
  <g display="none" overflow="visible" y="0" x="0" height="100%" width="100%" id="canvasGrid">
   <rect fill="url(#gridpattern)" stroke-width="0" y="0" x="0" height="100%" width="100%"/>
  </g>
 </g>
 <g>
  <title>Layer 1</title>
  <path id="svg_5" d="m206.986166,365.240289c-28.953994,-15.523322 0.734684,-46.177177 24.877238,-36.263785c17.965832,-0.040983 35.931766,-0.013942 53.897649,-0.021824c0,-35.334734 0,-70.669519 0,-106.004273c-45.004524,-54.289254 -90.009048,-108.578508 -135.013562,-162.867762c101.862385,-0.378115 203.725716,-0.377704 305.58808,0c-44.195437,54.557509 -88.390874,109.115008 -132.586301,163.672517c0,35.06653 0,70.133019 0,105.199518c26.526908,0.236512 53.099222,-0.643088 79.587225,0.895302c20.855252,5.602398 12.506817,39.854531 -7.761362,36.243823c-62.86099,-0.218743 -125.742044,0.398354 -188.588968,-0.853506l0,-0.00001zm130.709791,-191.917056c20.259012,-7.720143 17.410914,-41.125716 -4.321047,-44.531777c-32.782322,-9.030365 -39.861209,47.840182 -5.404738,46.505584c3.327214,0.021855 6.707881,-0.449287 9.725775,-1.973807l0.00001,0z" stroke-width="1.5" fill="#450a84"/>
 </g>
</svg>